<svg width="528" height="107" viewBox="0 0 528 107" fill="none" xmlns="http://www.w3.org/2000/svg">
<path fill-rule="evenodd" clip-rule="evenodd" d="M0 0V13.1196H27.4866V71.5952H46.3863V13.1196H73.873V0H0ZM96.255 63.4978C91.2537 63.4978 87.2684 62.3149 84.2993 59.9489C81.3302 57.5829 79.6837 54.2048 79.3599 49.8147H116.188C116.508 41.4089 114.145 34.7035 109.099 29.6985C104.053 24.6935 97.5811 22.191 89.683 22.191C81.8194 22.191 75.3541 24.568 70.2874 29.3221C65.2206 34.0762 62.6855 40.1466 62.682 47.5332C62.682 55.0583 65.379 61.1032 70.773 65.6682C76.167 70.2331 83.3728 72.5159 92.3904 72.5166C101.484 72.5166 109.106 70.3982 115.258 66.1615V56.5792C108.634 61.1942 102.3 63.5018 96.255 63.5018V63.4978ZM90.8197 31.2624C97.371 31.2624 101.081 34.7815 101.949 41.8197H79.6803C80.476 34.7815 84.1891 31.2624 90.8197 31.2624ZM156.974 61.7039C154.934 61.7885 152.897 61.4843 150.985 60.8095C149.073 60.1347 147.325 59.1032 145.845 57.7765C144.42 56.4214 143.308 54.8025 142.579 53.022C141.85 51.2415 141.519 49.3378 141.608 47.4308C141.518 45.542 141.858 43.6569 142.607 41.9031C143.356 40.1493 144.495 38.5678 145.948 37.2655C148.841 34.7305 152.699 33.463 157.521 33.463C162.113 33.531 166.621 34.6381 170.665 36.6912V25.3685C165.151 23.3533 159.301 22.2774 153.388 22.191C144.956 22.191 138.012 24.5765 132.556 29.3475C129.89 31.6473 127.779 34.4619 126.369 37.6C124.959 40.7381 124.281 44.126 124.382 47.5332C124.382 55.0583 127.083 61.1032 132.484 65.6682C137.885 70.2331 145.09 72.5159 154.101 72.5166C160.028 72.3941 165.888 71.3019 171.42 69.2884V58.3684C165.199 60.5894 160.384 61.6996 156.974 61.699V61.7039ZM182.445 0V71.5952H198.586V40.7014C202.13 35.8101 205.733 33.3642 209.395 33.3635C214.933 33.3635 217.703 36.8875 217.703 43.9355V71.5952H233.833V40.7111C233.833 34.8969 232.066 30.3566 228.532 27.0903C226.748 25.459 224.633 24.1842 222.314 23.3423C219.995 22.5005 217.52 22.1089 215.037 22.191C208.699 22.191 203.288 24.8901 198.803 30.2884H198.586V0H182.445Z" fill="#E0C3C3"/>
<path fill-rule="evenodd" clip-rule="evenodd" d="M244.931 71.5952H263.831V42.5402H269.266C271.908 42.5946 274.427 43.6036 276.303 45.3589C278.494 47.2381 281.125 51.4917 284.198 58.1197C287.27 64.7478 289.43 69.2406 290.677 71.5982H311.416C308.223 65.247 304.909 58.487 301.475 51.3181C298.041 44.1493 294.421 39.7465 290.615 38.1098C299.305 34.3203 303.648 28.482 303.645 20.5949C303.676 17.841 303.076 15.1133 301.887 12.5984C300.697 10.0834 298.946 7.8407 296.753 6.02356C292.154 2.01111 286.178 0.00520953 278.824 0.00585953H244.931V71.6011V71.5952ZM273.399 13.1196C280.602 13.1196 284.205 15.8187 284.208 21.217C284.276 22.3653 284.059 23.5128 283.572 24.5675C283.086 25.6221 282.345 26.5546 281.408 27.2902C279.219 28.8036 276.543 29.555 273.833 29.4167H263.831V13.1196H273.399ZM349.432 63.4978C344.441 63.4978 340.459 62.3149 337.487 59.9489C334.514 57.5829 332.868 54.2048 332.547 49.8147H369.375C369.696 41.4089 367.333 34.7035 362.287 29.6985C357.241 24.6935 350.765 22.191 342.86 22.191C335.007 22.191 328.545 24.568 323.475 29.3221C318.405 34.0762 315.869 40.1466 315.869 47.5332C315.869 55.0583 318.566 61.1032 323.96 65.6682C329.354 70.2331 336.56 72.5159 345.578 72.5166C354.671 72.5166 362.294 70.3982 368.445 66.1615V56.5792C361.822 61.1942 355.484 63.5018 349.432 63.5018V63.4978ZM344.007 31.2624C350.558 31.2624 354.268 34.7815 355.136 41.8197H332.868C333.663 34.7815 337.377 31.2624 344.007 31.2624ZM398.484 22.1949C392.109 22.1949 386.976 23.5804 383.088 26.3513C381.548 27.3866 380.248 28.7073 379.267 30.2325C378.286 31.7577 377.645 33.4556 377.383 35.2224C377.121 36.9892 377.244 38.7879 377.743 40.5086C378.242 42.2292 379.108 43.8358 380.287 45.2303C382.313 47.658 386.077 49.8868 391.582 51.9168C397.086 53.9467 400.317 55.3709 401.274 56.1893C401.7 56.5001 402.05 56.8939 402.299 57.3438C402.549 57.7937 402.693 58.2892 402.721 58.7964C402.721 61.1819 400.114 62.3746 394.899 62.3746C390.445 62.3746 384.924 61.0096 378.334 58.2796V68.9812C384.101 71.4197 390.368 72.6272 396.686 72.5176C403.393 72.5176 408.556 71.1496 412.176 68.4138C415.796 65.6779 417.604 61.7961 417.601 56.7684C417.591 53.5633 416.4 50.4612 414.232 47.9934C411.99 45.3284 408.153 42.9744 402.721 40.9315C397.289 38.8885 394.169 37.5521 393.359 36.9223C393.013 36.7106 392.723 36.4276 392.51 36.0947C392.297 35.7618 392.167 35.3878 392.129 35.0006C392.129 32.5065 394.065 31.2598 397.937 31.2605C403.186 31.2605 408.89 33.0369 415.049 36.5898V25.778C409.914 23.3412 404.231 22.1106 398.484 22.191V22.1949ZM445.408 23.2196V7.99501H443.403L421.951 30.6472V33.6199H429.278V54.3758C429.278 60.32 431.017 64.8297 434.496 67.9048C437.975 70.98 442.863 72.5176 449.159 72.5176C454.303 72.4532 459.381 71.4258 464.101 69.4951V58.4776C460.787 60.2142 457.081 61.1805 453.292 61.2963C452.227 61.3531 451.162 61.1976 450.165 60.84C449.168 60.4823 448.262 59.9305 447.506 59.2205C446.043 57.6676 445.289 55.6324 445.408 53.5577V33.6199H464.101V23.2147H445.408V23.2196ZM478.134 29.0696C472.616 33.6521 469.857 39.7397 469.857 47.3324C469.857 54.7885 472.564 60.8507 477.979 65.519C483.383 70.1873 490.344 72.5215 498.862 72.5215C506.242 72.6753 513.439 70.3478 519.167 65.9548C524.861 61.5771 527.706 55.4021 527.703 47.4298C527.703 39.4966 524.906 33.3066 519.312 28.86C513.718 24.4133 506.902 22.19 498.862 22.19C490.565 22.1907 483.655 24.4822 478.134 29.0647V29.0696ZM487.072 47.3324C487.072 42.1662 488.112 38.1969 490.193 35.4247C491.146 34.0952 492.442 33.0161 493.958 32.2887C495.475 31.5613 497.162 31.2095 498.862 31.2663C506.571 31.2663 510.425 36.5189 510.425 47.0242C510.425 58.0092 506.571 63.5018 498.862 63.5018C490.999 63.5018 487.069 58.112 487.072 47.3324Z" fill="#FF5E06"/>
</svg>
